<svg width="14" height="15" viewBox="0 0 14 15" fill="none" xmlns="http://www.w3.org/2000/svg">
<path fill-rule="evenodd" clip-rule="evenodd" d="M0.166626 7.5C0.166626 6.94772 0.614341 6.5 1.16663 6.5H12.8333C13.3856 6.5 13.8333 6.94772 13.8333 7.5C13.8333 8.05228 13.3856 8.5 12.8333 8.5H1.16663C0.614341 8.5 0.166626 8.05228 0.166626 7.5Z" fill="#072D4B"/>
<path fill-rule="evenodd" clip-rule="evenodd" d="M6.275 1.26958C6.65539 0.869175 7.28835 0.852945 7.68875 1.23333L13.5221 6.775C13.7208 6.96379 13.8333 7.22589 13.8333 7.5C13.8333 7.77411 13.7208 8.0362 13.5221 8.225L7.68875 13.7667C7.28835 14.147 6.65539 14.1308 6.275 13.7304C5.89462 13.33 5.91085 12.6971 6.31125 12.3167L11.3814 7.5L6.31125 2.68333C5.91085 2.30294 5.89462 1.66999 6.275 1.26958Z" fill="#072D4B"/>
</svg>
