<svg width="18" height="18" viewBox="0 0 18 18" fill="none" xmlns="http://www.w3.org/2000/svg">
<path fill-rule="evenodd" clip-rule="evenodd" d="M9 2.5C5.41015 2.5 2.5 5.41015 2.5 9C2.5 12.5899 5.41015 15.5 9 15.5C12.5899 15.5 15.5 12.5899 15.5 9C15.5 5.41015 12.5899 2.5 9 2.5ZM0.5 9C0.5 4.30558 4.30558 0.5 9 0.5C13.6944 0.5 17.5 4.30558 17.5 9C17.5 13.6944 13.6944 17.5 9 17.5C4.30558 17.5 0.5 13.6944 0.5 9Z" fill="#072D4B"/>
<path fill-rule="evenodd" clip-rule="evenodd" d="M12.5 9C12.5 8.44772 12.9477 8 13.5 8H16.5C17.0523 8 17.5 8.44772 17.5 9C17.5 9.55228 17.0523 10 16.5 10H13.5C12.9477 10 12.5 9.55228 12.5 9Z" fill="#072D4B"/>
<path fill-rule="evenodd" clip-rule="evenodd" d="M0.5 9C0.5 8.44772 0.947715 8 1.5 8H4.5C5.05228 8 5.5 8.44772 5.5 9C5.5 9.55228 5.05228 10 4.5 10H1.5C0.947715 10 0.5 9.55228 0.5 9Z" fill="#072D4B"/>
<path fill-rule="evenodd" clip-rule="evenodd" d="M9 0.5C9.55228 0.5 10 0.947715 10 1.5V4.5C10 5.05228 9.55228 5.5 9 5.5C8.44772 5.5 8 5.05228 8 4.5V1.5C8 0.947715 8.44772 0.5 9 0.5Z" fill="#072D4B"/>
<path fill-rule="evenodd" clip-rule="evenodd" d="M9 12.5C9.55228 12.5 10 12.9477 10 13.5V16.5C10 17.0523 9.55228 17.5 9 17.5C8.44772 17.5 8 17.0523 8 16.5V13.5C8 12.9477 8.44772 12.5 9 12.5Z" fill="#072D4B"/>
</svg>
