<svg width="18" height="20" viewBox="0 0 18 20" fill="none" xmlns="http://www.w3.org/2000/svg">
<path fill-rule="evenodd" clip-rule="evenodd" d="M0.5 5C0.5 4.44772 0.947715 4 1.5 4H16.5C17.0523 4 17.5 4.44772 17.5 5C17.5 5.55228 17.0523 6 16.5 6H1.5C0.947715 6 0.5 5.55228 0.5 5Z" fill="#FF8C8C"/>
<path fill-rule="evenodd" clip-rule="evenodd" d="M7.33342 2.66663C7.1566 2.66663 6.98704 2.73686 6.86201 2.86189C6.73699 2.98691 6.66675 3.15648 6.66675 3.33329V3.99996H11.3334V3.33329C11.3334 3.15648 11.2632 2.98691 11.1382 2.86189C11.0131 2.73686 10.8436 2.66663 10.6667 2.66663H7.33342ZM13.3334 3.99996V3.33329C13.3334 2.62605 13.0525 1.94777 12.5524 1.44767C12.0523 0.947578 11.374 0.666626 10.6667 0.666626H7.33342C6.62617 0.666626 5.94789 0.947578 5.4478 1.44767C4.9477 1.94777 4.66675 2.62605 4.66675 3.33329V3.99996H3.16675C2.61446 3.99996 2.16675 4.44767 2.16675 4.99996V16.6666C2.16675 17.3739 2.4477 18.0521 2.9478 18.5522C3.44789 19.0523 4.12617 19.3333 4.83341 19.3333H13.1667C13.874 19.3333 14.5523 19.0523 15.0524 18.5522C15.5525 18.0521 15.8334 17.3739 15.8334 16.6666V4.99996C15.8334 4.44767 15.3857 3.99996 14.8334 3.99996H13.3334ZM4.16675 5.99996V16.6666C4.16675 16.8434 4.23699 17.013 4.36201 17.138C4.48703 17.2631 4.6566 17.3333 4.83341 17.3333H13.1667C13.3436 17.3333 13.5131 17.2631 13.6382 17.138C13.7632 17.013 13.8334 16.8434 13.8334 16.6666V5.99996H4.16675Z" fill="#FF8C8C"/>
</svg>
