<svg width="22" height="22" viewBox="0 0 22 22" fill="none" xmlns="http://www.w3.org/2000/svg">
<path fill-rule="evenodd" clip-rule="evenodd" d="M3 10C3.55228 10 4 10.4477 4 11V20H18V11C18 10.4477 18.4477 10 19 10C19.5523 10 20 10.4477 20 11V21C20 21.5523 19.5523 22 19 22H3C2.44772 22 2 21.5523 2 21V11C2 10.4477 2.44772 10 3 10Z" fill="white"/>
<path fill-rule="evenodd" clip-rule="evenodd" d="M0 6C0 5.44772 0.447715 5 1 5H21C21.5523 5 22 5.44772 22 6V11C22 11.5523 21.5523 12 21 12H1C0.447715 12 0 11.5523 0 11V6ZM2 7V10H20V7H2Z" fill="white"/>
<path fill-rule="evenodd" clip-rule="evenodd" d="M11 5C11.5523 5 12 5.44772 12 6V21C12 21.5523 11.5523 22 11 22C10.4477 22 10 21.5523 10 21V6C10 5.44772 10.4477 5 11 5Z" fill="white"/>
<path fill-rule="evenodd" clip-rule="evenodd" d="M6.5 2C6.10218 2 5.72064 2.15804 5.43934 2.43934C5.15804 2.72064 5 3.10218 5 3.5C5 3.89782 5.15804 4.27936 5.43934 4.56066C5.72064 4.84196 6.10218 5 6.5 5H9.65402C9.53195 4.68061 9.37741 4.32942 9.18628 3.98192C8.55732 2.83834 7.6939 2 6.5 2ZM11 6C11.9806 5.80388 11.9805 5.80354 11.9804 5.80318L11.9803 5.80236L11.9799 5.80038L11.9788 5.79503L11.9754 5.77893C11.9727 5.76583 11.9688 5.74805 11.9639 5.72588C11.954 5.68157 11.9396 5.61965 11.9203 5.54262C11.8819 5.38877 11.8237 5.17343 11.7424 4.91686C11.581 4.40732 11.3233 3.71734 10.9387 3.01808C10.1927 1.66166 8.8061 0 6.5 0C5.57174 0 4.6815 0.368749 4.02513 1.02513C3.36875 1.6815 3 2.57174 3 3.5C3 4.42826 3.36875 5.3185 4.02513 5.97487C4.6815 6.63125 5.57174 7 6.5 7H11C11.2996 7 11.5834 6.86568 11.7733 6.63399C11.9633 6.4023 12.0393 6.09766 11.9806 5.80388L11 6Z" fill="white"/>
<path fill-rule="evenodd" clip-rule="evenodd" d="M11.0613 3.01808C11.8073 1.66166 13.1939 0 15.5 0C16.4283 0 17.3185 0.368749 17.9749 1.02513C18.6313 1.6815 19 2.57174 19 3.5C19 4.42826 18.6313 5.3185 17.9749 5.97487C17.3185 6.63125 16.4283 7 15.5 7H11C10.7004 7 10.4166 6.86568 10.2267 6.63399C10.0367 6.4023 9.96067 6.09766 10.0194 5.80388L11 6C10.0194 5.80388 10.0195 5.80354 10.0196 5.80318L10.0197 5.80236L10.0201 5.80038L10.0212 5.79503L10.0246 5.77893C10.0274 5.76583 10.0312 5.74805 10.0361 5.72588C10.046 5.68157 10.0604 5.61965 10.0797 5.54262C10.1181 5.38877 10.1764 5.17343 10.2576 4.91686C10.419 4.40732 10.6767 3.71734 11.0613 3.01808ZM12.346 5H15.5C15.8978 5 16.2794 4.84196 16.5607 4.56066C16.842 4.27936 17 3.89782 17 3.5C17 3.10218 16.842 2.72064 16.5607 2.43934C16.2794 2.15804 15.8978 2 15.5 2C14.3061 2 13.4427 2.83834 12.8137 3.98192C12.6226 4.32942 12.4681 4.68061 12.346 5ZM11.9803 6.1978C11.9802 6.19807 11.9802 6.19804 11.9803 6.19772L11.9803 6.1978Z" fill="white"/>
</svg>
