<svg width="20" height="19" viewBox="0 0 20 19" fill="none" xmlns="http://www.w3.org/2000/svg">
<path fill-rule="evenodd" clip-rule="evenodd" d="M8.26097 1.15962C8.42546 0.808017 8.77857 0.583374 9.16675 0.583374C10.0789 0.583374 10.9634 0.927138 11.6233 1.554C12.2849 2.18251 12.6667 3.04624 12.6667 3.95837V6.12504H16.3786C16.7554 6.1218 17.1299 6.19592 17.4769 6.34388C17.8259 6.49265 18.1407 6.71345 18.3976 6.99413C18.6547 7.27499 18.8475 7.60908 18.9592 7.97456C19.0709 8.34022 19.0979 8.72583 19.0376 9.10364L17.8876 16.2285C17.8876 16.2286 17.8876 16.2284 17.8876 16.2285C17.787 16.8579 17.4521 17.4204 16.9599 17.8179C16.4703 18.2132 15.8555 18.4221 15.2286 18.4167H3.33341C2.64225 18.4167 1.96972 18.1563 1.46615 17.678C0.960841 17.1979 0.666748 16.5355 0.666748 15.8334V10.2917C0.666748 9.58953 0.960841 8.92717 1.46615 8.44712C1.96972 7.96873 2.64225 7.70837 3.33341 7.70837H5.19723L8.26097 1.15962ZM6.83341 8.93073L9.75185 2.69258C9.93728 2.76479 10.1055 2.87072 10.2458 3.00399C10.5219 3.26628 10.6667 3.61073 10.6667 3.95837V7.12504C10.6667 7.67733 11.1145 8.12504 11.6667 8.12504H16.3834L16.3942 8.12498C16.4985 8.12386 16.6005 8.1444 16.6925 8.18363C16.7844 8.22282 16.8622 8.27879 16.9223 8.34451C16.9823 8.41006 17.0235 8.48371 17.0465 8.55908C17.0695 8.63414 17.0747 8.71178 17.0627 8.78768C17.0627 8.78754 17.0626 8.78782 17.0627 8.78768L15.9126 15.9132C15.8925 16.0389 15.8237 16.1648 15.7034 16.2619C15.582 16.3599 15.4191 16.4186 15.2442 16.4168L6.83341 16.4167V8.93073ZM4.83341 16.4167V9.70837H3.33341C3.14053 9.70837 2.9652 9.78165 2.84365 9.89712C2.72384 10.0109 2.66675 10.154 2.66675 10.2917V15.8334C2.66675 15.971 2.72384 16.1141 2.84365 16.228C2.9652 16.3434 3.14053 16.4167 3.33341 16.4167H4.83341Z" fill="#072D4B"/>
</svg>
