<svg width="16" height="24" viewBox="0 0 16 24" fill="none" xmlns="http://www.w3.org/2000/svg">
<path fill-rule="evenodd" clip-rule="evenodd" d="M8 2C4.68629 2 2 4.68629 2 8C2 11.3137 4.68629 14 8 14C11.3137 14 14 11.3137 14 8C14 4.68629 11.3137 2 8 2ZM0 8C0 3.58172 3.58172 0 8 0C12.4183 0 16 3.58172 16 8C16 12.4183 12.4183 16 8 16C3.58172 16 0 12.4183 0 8Z" fill="#072D4B"/>
<path fill-rule="evenodd" clip-rule="evenodd" d="M11.6585 12.8887C12.206 12.816 12.7087 13.201 12.7813 13.7485L13.9913 22.8685C14.0418 23.2491 13.8699 23.625 13.549 23.8358C13.228 24.0466 12.8148 24.055 12.4855 23.8575L8 21.1662L3.5145 23.8575C3.18522 24.0551 2.77191 24.0466 2.45096 23.8358C2.13002 23.625 1.95815 23.249 2.00871 22.8683L3.21871 13.7583C3.29142 13.2109 3.79419 12.826 4.34167 12.8987C4.88914 12.9714 5.27401 13.4742 5.2013 14.0217L4.26445 21.0751L7.48551 19.1425C7.80219 18.9525 8.19781 18.9525 8.5145 19.1425L11.7359 21.0753L10.7987 14.0115C10.726 13.464 11.111 12.9613 11.6585 12.8887Z" fill="#072D4B"/>
</svg>
