<?xml version="1.0" encoding="iso-8859-1"?>
<!-- Generator: Adobe Illustrator 19.0.0, SVG Export Plug-In . SVG Version: 6.00 Build 0)  -->
<svg version="1.1" id="Layer_1" xmlns="http://www.w3.org/2000/svg" xmlns:xlink="http://www.w3.org/1999/xlink" x="0px" y="0px"
	 viewBox="0 0 511.936 511.936" style="enable-background:new 0 0 511.936 511.936;" xml:space="preserve">
<g>
	<g>
		<path d="M255.968,0C136.144,0,38.656,97.168,38.656,216.576c0,66.448,29.68,127.584,81.744,168.992v126.368l102.176-81.456
			c11.296,1.76,22.496,2.656,33.392,2.656c119.824,0,217.312-97.152,217.312-216.56S375.792,0,255.968,0z M255.968,401.136
			c-11.264,0-22.976-1.12-34.784-3.36l-7.2-1.36L152.4,445.488v-75.904l-6.496-4.8C98.08,329.488,70.656,275.456,70.656,216.56
			C70.656,114.8,153.776,32,255.968,32S441.28,114.8,441.28,216.576C441.28,318.336,358.16,401.136,255.968,401.136z"/>
	</g>
</g>
<g>
	<g>
		<path d="M147.52,160.24c-27.024,0-49.008,21.936-49.008,48.896c0,26.96,21.984,48.896,49.008,48.896s49.008-21.936,49.008-48.896
			C196.528,182.176,174.544,160.24,147.52,160.24z M147.504,226.032c-9.36,0-17.008-7.584-17.008-16.896
			c0-9.312,7.648-16.896,17.008-16.896s17.008,7.584,17.008,16.896C164.512,218.448,156.864,226.032,147.504,226.032z"/>
	</g>
</g>
<g>
	<g>
		<path d="M255.968,160.256c-27.024,0-49.008,21.936-49.008,48.896c0,26.96,21.984,48.88,49.008,48.88s49.008-21.936,49.008-48.896
			C304.976,182.176,282.992,160.256,255.968,160.256z M255.968,226.032c-9.376,0-17.008-7.584-17.008-16.896
			c0-9.312,7.632-16.88,17.008-16.88c9.376,0,17.008,7.584,17.008,16.896C272.976,218.464,265.344,226.032,255.968,226.032z"/>
	</g>
</g>
<g>
	<g>
		<path d="M364.416,160.24c-27.024,0-49.008,21.936-49.008,48.896c0,26.96,21.984,48.896,49.008,48.896s49.008-21.936,49.008-48.896
			C413.424,182.176,391.44,160.24,364.416,160.24z M364.416,226.048c-9.36,0-17.008-7.584-17.008-16.896
			c0-9.312,7.632-16.896,17.008-16.896c9.376,0,17.008,7.584,17.008,16.896C381.424,218.464,373.776,226.048,364.416,226.048z"/>
	</g>
</g>
<g>
</g>
<g>
</g>
<g>
</g>
<g>
</g>
<g>
</g>
<g>
</g>
<g>
</g>
<g>
</g>
<g>
</g>
<g>
</g>
<g>
</g>
<g>
</g>
<g>
</g>
<g>
</g>
<g>
</g>
</svg>
