<svg width="22" height="22" viewBox="0 0 22 22" fill="none" xmlns="http://www.w3.org/2000/svg">
<path fill-rule="evenodd" clip-rule="evenodd" d="M11 2C6.02944 2 2 6.02944 2 11C2 15.9706 6.02944 20 11 20C15.9706 20 20 15.9706 20 11C20 6.02944 15.9706 2 11 2ZM0 11C0 4.92487 4.92487 0 11 0C17.0751 0 22 4.92487 22 11C22 17.0751 17.0751 22 11 22C4.92487 22 0 17.0751 0 11Z" fill="#072D4B"/>
<path fill-rule="evenodd" clip-rule="evenodd" d="M8.52814 6.11833C8.8533 5.94431 9.24784 5.96338 9.5547 6.16795L15.5547 10.168C15.8329 10.3534 16 10.6656 16 11C16 11.3344 15.8329 11.6466 15.5547 11.8321L9.5547 15.8321C9.24784 16.0366 8.8533 16.0557 8.52814 15.8817C8.20298 15.7077 8 15.3688 8 15V7C8 6.63121 8.20298 6.29235 8.52814 6.11833ZM10 8.86852V13.1315L13.1972 11L10 8.86852Z" fill="#072D4B"/>
</svg>
