<svg width="22" height="20" viewBox="0 0 22 20" fill="none" xmlns="http://www.w3.org/2000/svg">
<path fill-rule="evenodd" clip-rule="evenodd" d="M8 0C8.43043 0 8.81257 0.27543 8.94868 0.683772L14 15.8377L16.0513 9.68377C16.1874 9.27543 16.5696 9 17 9H21C21.5523 9 22 9.44771 22 10C22 10.5523 21.5523 11 21 11H17.7208L14.9487 19.3162C14.8126 19.7246 14.4304 20 14 20C13.5696 20 13.1874 19.7246 13.0513 19.3162L8 4.16228L5.94868 10.3162C5.81257 10.7246 5.43043 11 5 11H1C0.447715 11 0 10.5523 0 10C0 9.44771 0.447715 9 1 9H4.27924L7.05132 0.683772C7.18743 0.27543 7.56957 0 8 0Z" fill="#072D4B"/>
</svg>
