<svg width="22" height="22" viewBox="0 0 22 22" fill="none" xmlns="http://www.w3.org/2000/svg">
<path fill-rule="evenodd" clip-rule="evenodd" d="M11 2C6.02944 2 2 6.02944 2 11C2 15.9706 6.02944 20 11 20C15.9706 20 20 15.9706 20 11C20 6.02944 15.9706 2 11 2ZM0 11C0 4.92487 4.92487 0 11 0C17.0751 0 22 4.92487 22 11C22 17.0751 17.0751 22 11 22C4.92487 22 0 17.0751 0 11Z" fill="#072D4B"/>
<path fill-rule="evenodd" clip-rule="evenodd" d="M0 11C0 10.4477 0.447715 10 1 10H21C21.5523 10 22 10.4477 22 11C22 11.5523 21.5523 12 21 12H1C0.447715 12 0 11.5523 0 11Z" fill="#072D4B"/>
<path fill-rule="evenodd" clip-rule="evenodd" d="M8.00023 11C8.06877 14.0748 9.12625 17.0352 11 19.4492C12.8737 17.0352 13.9312 14.0748 13.9998 11C13.9312 7.92516 12.8737 4.96484 11 2.5508C9.12625 4.96484 8.06877 7.92516 8.00023 11ZM11 1L10.2617 0.325577C7.59689 3.24291 6.08251 7.02885 6.00022 10.9792C5.99993 10.9931 5.99993 11.0069 6.00022 11.0208C6.08251 14.9711 7.59689 18.7571 10.2617 21.6744C10.4511 21.8818 10.7191 22 11 22C11.2809 22 11.5489 21.8818 11.7383 21.6744C14.4031 18.7571 15.9175 14.9711 15.9998 11.0208C16.0001 11.0069 16.0001 10.9931 15.9998 10.9792C15.9175 7.02885 14.4031 3.24291 11.7383 0.325577L11 1Z" fill="#072D4B"/>
</svg>
