<svg width="17" height="14" viewBox="0 0 17 14" fill="none" xmlns="http://www.w3.org/2000/svg">
<path fill-rule="evenodd" clip-rule="evenodd" d="M3.10447 2C3.00518 2 2.91314 2.03896 2.84777 2.1033C2.78293 2.16709 2.74951 2.25017 2.74951 2.33333V6.33333C2.74951 7.83099 3.35395 9.27062 4.43519 10.3346C4.97072 10.8616 5.60735 11.2804 6.30915 11.5665C7.01097 11.8526 7.76372 12 8.52429 12C10.061 12 11.5316 11.3991 12.6134 10.3346C13.6946 9.27062 14.2991 7.83099 14.2991 6.33333V2.33333C14.2991 2.25017 14.2656 2.16709 14.2008 2.1033C14.1354 2.03896 14.0434 2 13.9441 2H3.10447ZM3.10447 0H13.9441C14.5635 0 15.1608 0.241989 15.6036 0.677753C16.047 1.11405 16.2991 1.70926 16.2991 2.33333V6.33333C16.2991 8.3719 15.476 10.3237 14.0162 11.7601C12.5569 13.1961 10.5811 14 8.52429 14C7.5055 14 6.49633 13.8026 5.55424 13.4186C4.61213 13.0346 3.75507 12.4713 3.0324 11.7601C1.57261 10.3237 0.749512 8.3719 0.749512 6.33333V2.33333C0.749512 1.70926 1.0016 1.11405 1.44497 0.677753C1.8878 0.241989 2.48504 0 3.10447 0Z" fill="#0768B5"/>
<path fill-rule="evenodd" clip-rule="evenodd" d="M5.10162 4.96523C5.48899 4.57158 6.12214 4.56648 6.51579 4.95386L8.5243 6.93032L10.5328 4.95386C10.9265 4.56648 11.5596 4.57158 11.947 4.96523C12.3344 5.35888 12.3293 5.99203 11.9356 6.3794L9.2257 9.04606C8.83652 9.42903 8.21209 9.42903 7.8229 9.04606L5.113 6.3794C4.71934 5.99203 4.71425 5.35888 5.10162 4.96523Z" fill="#0768B5"/>
</svg>
