<svg width="16" height="16" viewBox="0 0 16 16" fill="none" xmlns="http://www.w3.org/2000/svg">
<path fill-rule="evenodd" clip-rule="evenodd" d="M7.25 2.25C4.48858 2.25 2.25 4.48858 2.25 7.25C2.25 10.0114 4.48858 12.25 7.25 12.25C10.0114 12.25 12.25 10.0114 12.25 7.25C12.25 4.48858 10.0114 2.25 7.25 2.25ZM0.25 7.25C0.25 3.38401 3.38401 0.25 7.25 0.25C11.116 0.25 14.25 3.38401 14.25 7.25C14.25 11.116 11.116 14.25 7.25 14.25C3.38401 14.25 0.25 11.116 0.25 7.25Z" fill="#072D4B"/>
<path fill-rule="evenodd" clip-rule="evenodd" d="M10.7804 10.7804C11.1709 10.3899 11.8041 10.3899 12.1946 10.7804L15.4571 14.0429C15.8476 14.4334 15.8476 15.0666 15.4571 15.4571C15.0666 15.8476 14.4334 15.8476 14.0429 15.4571L10.7804 12.1946C10.3899 11.8041 10.3899 11.1709 10.7804 10.7804Z" fill="#072D4B"/>
</svg>
