<svg width="14" height="16" viewBox="0 0 14 16" fill="none" xmlns="http://www.w3.org/2000/svg">
<path fill-rule="evenodd" clip-rule="evenodd" d="M1.80719 7C2.35947 7 2.80719 7.44772 2.80719 8V13.3333C2.80719 13.4165 2.84061 13.4996 2.90544 13.5634C2.97082 13.6277 3.06286 13.6667 3.16214 13.6667H11.2919C11.3912 13.6667 11.4832 13.6277 11.5486 13.5634C11.6134 13.4996 11.6468 13.4165 11.6468 13.3333V8C11.6468 7.44772 12.0945 7 12.6468 7C13.1991 7 13.6468 7.44772 13.6468 8V13.3333C13.6468 13.9574 13.3947 14.5526 12.9514 14.9889C12.5085 15.4247 11.9113 15.6667 11.2919 15.6667H3.16214C2.54272 15.6667 1.94548 15.4247 1.50265 14.9889C1.05927 14.5526 0.80719 13.9574 0.80719 13.3333V8C0.80719 7.44772 1.25491 7 1.80719 7Z" fill="#0768B5"/>
<path fill-rule="evenodd" clip-rule="evenodd" d="M6.5256 0.620603C6.91478 0.237631 7.53921 0.237631 7.9284 0.620603L10.6383 3.28727C11.032 3.67464 11.037 4.30779 10.6497 4.70144C10.2623 5.09509 9.62916 5.10018 9.23551 4.71281L7.227 2.73635L5.21849 4.71281C4.82483 5.10018 4.19169 5.09509 3.80432 4.70144C3.41695 4.30779 3.42204 3.67464 3.81569 3.28727L6.5256 0.620603Z" fill="#0768B5"/>
<path fill-rule="evenodd" clip-rule="evenodd" d="M7.22699 0.333374C7.77927 0.333374 8.22699 0.781089 8.22699 1.33337V10C8.22699 10.5523 7.77927 11 7.22699 11C6.6747 11 6.22699 10.5523 6.22699 10V1.33337C6.22699 0.781089 6.6747 0.333374 7.22699 0.333374Z" fill="#0768B5"/>
</svg>
