<svg width="6" height="9" viewBox="0 0 6 9" fill="none" xmlns="http://www.w3.org/2000/svg">
<path fill-rule="evenodd" clip-rule="evenodd" d="M0.481361 8.22741C0.286099 8.03215 0.286099 7.71556 0.481361 7.5203L3.96314 4.03852C4.1584 3.84326 4.47499 3.84326 4.67025 4.03852C4.86551 4.23378 4.86551 4.55036 4.67025 4.74563L1.18847 8.22741C0.993206 8.42267 0.676623 8.42267 0.481361 8.22741Z" fill="white"/>
<path fill-rule="evenodd" clip-rule="evenodd" d="M0.481361 0.55674C0.286099 0.752002 0.286099 1.06858 0.481361 1.26385L3.96314 4.74563C4.15841 4.94089 4.47499 4.94089 4.67025 4.74563C4.86551 4.55037 4.86551 4.23378 4.67025 4.03852L1.18847 0.55674C0.993206 0.361478 0.676623 0.361478 0.481361 0.55674Z" fill="white"/>
</svg>
