<svg width="22" height="23" viewBox="0 0 22 23" fill="none" xmlns="http://www.w3.org/2000/svg">
<path fill-rule="evenodd" clip-rule="evenodd" d="M10.0429 3.04289C11.3563 1.72951 13.1376 0.991665 14.995 0.991665C16.8524 0.991665 18.6337 1.72951 19.9471 3.04289C21.2605 4.35627 21.9983 6.1376 21.9983 7.995C21.9983 9.85204 21.2608 11.633 19.9479 12.9463C19.9476 12.9466 19.9474 12.9469 19.9471 12.9471L13.2082 19.7061C13.0205 19.8942 12.7657 20 12.5 20H4C3.44772 20 3 19.5523 3 19V10.5C3 10.2348 3.10536 9.98043 3.29289 9.7929L10.0429 3.04289ZM14.995 2.99166C13.668 2.99166 12.3954 3.5188 11.4571 4.45711L5 10.9142V18H12.0849L18.5318 11.5339L18.5329 11.5329C19.4712 10.5946 19.9983 9.32197 19.9983 7.995C19.9983 6.66803 19.4712 5.39542 18.5329 4.45711C17.5946 3.5188 16.322 2.99166 14.995 2.99166Z" fill="#072D4B"/>
<path fill-rule="evenodd" clip-rule="evenodd" d="M15.7071 7.29289C16.0976 7.68342 16.0976 8.31658 15.7071 8.70711L1.70711 22.7071C1.31658 23.0976 0.683417 23.0976 0.292893 22.7071C-0.0976311 22.3166 -0.0976311 21.6834 0.292893 21.2929L14.2929 7.29289C14.6834 6.90237 15.3166 6.90237 15.7071 7.29289Z" fill="#072D4B"/>
<path fill-rule="evenodd" clip-rule="evenodd" d="M7 15C7 14.4477 7.44772 14 8 14H16.5C17.0523 14 17.5 14.4477 17.5 15C17.5 15.5523 17.0523 16 16.5 16H8C7.44772 16 7 15.5523 7 15Z" fill="#072D4B"/>
</svg>
