<svg width="16" height="9" viewBox="0 0 16 9" fill="none" xmlns="http://www.w3.org/2000/svg">
<path fill-rule="evenodd" clip-rule="evenodd" d="M0.3536 0.646446C0.548862 0.451184 0.865445 0.451184 1.06071 0.646446L8.3536 7.93934C8.54886 8.1346 8.54886 8.45118 8.3536 8.64645C8.15834 8.84171 7.84175 8.84171 7.64649 8.64645L0.3536 1.35355C0.158338 1.15829 0.158338 0.841708 0.3536 0.646446Z" fill="#072D4B"/>
<path fill-rule="evenodd" clip-rule="evenodd" d="M15.6464 0.646446C15.4511 0.451184 15.1346 0.451184 14.9393 0.646446L7.6464 7.93934C7.45114 8.1346 7.45114 8.45118 7.6464 8.64645C7.84166 8.84171 8.15825 8.84171 8.35351 8.64645L15.6464 1.35355C15.8417 1.15829 15.8417 0.841708 15.6464 0.646446Z" fill="#072D4B"/>
</svg>
